<svg width="81" height="108" viewBox="0 0 81 108" fill="none" xmlns="http://www.w3.org/2000/svg">
<path d="M36.3378 105.821C5.68899 61.3894 0 56.8293 0 40.5C0 18.1324 18.1324 0 40.5 0C62.8676 0 81 18.1324 81 40.5C81 56.8293 75.311 61.3894 44.6622 105.821C42.6509 108.726 38.3489 108.726 36.3378 105.821ZM40.5 57.375C49.8199 57.375 57.375 49.8198 57.375 40.5C57.375 31.1801 49.8199 23.625 40.5 23.625C31.1801 23.625 23.625 31.1801 23.625 40.5C23.625 49.8198 31.1801 57.375 40.5 57.375Z" fill="#D9AE76"/>
</svg>
